<svg width="1500" height="1400" viewBox="0 0 1500 1400" fill="none" xmlns="http://www.w3.org/2000/svg">
<path d="M859.66 739.578L882.318 756.195C875.989 770.889 872.218 786.322 870.851 801.862L842.082 806.407C837.887 807.052 834.978 811.019 835.623 815.215L843.771 867.408C844.416 871.604 848.383 874.513 852.579 873.868L880.531 869.449C886.345 884.362 894.651 898.415 905.242 911.042L888.132 934.373C885.617 937.802 886.352 942.58 889.781 945.095L932.342 976.307C935.771 978.822 940.549 978.087 943.064 974.658L959.829 951.798C975.494 958.634 992.03 962.592 1008.62 963.798L1012.99 991.818C1013.63 996.014 1017.6 998.923 1021.8 998.278L1073.76 990.165C1077.95 989.52 1080.86 985.553 1080.22 981.358L1075.83 953.221C1090.54 947.26 1104.34 938.874 1116.67 928.268L1140.07 945.428C1143.5 947.942 1148.28 947.207 1150.79 943.778L1182 901.218C1184.52 897.789 1183.78 893.011 1180.35 890.496L1156.89 873.288C1163.33 858.159 1167.05 842.377 1168.24 826.505L1196.66 822.014C1200.86 821.368 1203.77 817.402 1203.12 813.206L1194.97 761.012C1194.33 756.817 1190.36 753.907 1186.17 754.553L1157.8 758.976C1151.92 744.431 1143.73 730.777 1133.25 718.432L1150.36 695.101C1152.87 691.672 1152.14 686.894 1148.71 684.379L1106.15 653.167C1102.72 650.652 1097.94 651.387 1095.42 654.816L1078.46 677.945C1063.2 671.405 1047.15 667.492 1031.09 666.263L1026.67 637.893C1026.02 633.698 1022.06 630.789 1017.86 631.434L965.667 639.582C961.472 640.227 958.563 644.194 959.208 648.39L963.613 676.643C948.951 682.537 935.082 690.874 922.688 701.43L899.895 684.714C896.466 682.2 891.688 682.935 889.173 686.364L857.961 728.924C855.496 732.285 856.231 737.064 859.66 739.578Z" fill="#EDF2F7"/>
<path d="M1063.55 755.816C1030.76 731.77 984.683 738.857 960.637 771.646C936.591 804.435 943.678 850.508 976.467 874.554C1009.26 898.6 1055.33 891.513 1079.38 858.725C1103.42 825.936 1096.33 779.862 1063.55 755.816Z" fill="white"/>
<path d="M816.407 628.334L832.687 627.824C835.047 636.792 838.84 645.184 843.768 652.766L832.26 665.119C830.576 666.913 830.665 669.763 832.459 671.447L854.826 692.361C856.62 694.045 859.47 693.956 861.154 692.162L872.335 680.158C880.317 684.888 889.129 688.335 898.475 690.315L899.001 707.078C899.078 709.542 901.121 711.46 903.584 711.383L934.163 710.424C936.627 710.347 938.545 708.304 938.468 705.84L937.953 689.416C947.546 686.939 956.509 682.838 964.512 677.461L976.518 688.69C978.311 690.375 981.161 690.285 982.846 688.492L1003.67 666.224C1005.35 664.43 1005.26 661.58 1003.47 659.896L991.412 648.62C995.997 640.643 999.301 631.884 1001.14 622.638L1017.95 622.111C1020.41 622.034 1022.33 619.991 1022.25 617.528L1021.3 586.949C1021.22 584.485 1019.18 582.567 1016.71 582.644L999.853 583.173C997.388 573.966 993.446 565.434 988.321 557.761L999.689 545.557C1001.37 543.764 1001.28 540.914 999.49 539.229L977.123 518.316C975.33 516.631 972.479 516.72 970.795 518.514L959.426 530.669C951.546 526.129 942.932 522.821 933.734 520.933L933.208 504.171C933.131 501.707 931.088 499.788 928.625 499.866L898.046 500.824C895.582 500.902 893.664 502.944 893.741 505.408L894.262 522.026C884.958 524.494 876.233 528.442 868.465 533.618L856.31 522.249C854.516 520.564 851.666 520.654 849.982 522.447L829.068 544.815C827.384 546.608 827.473 549.458 829.267 551.143L841.372 562.465C836.785 570.394 833.433 579.155 831.547 588.402L815.171 588.915C812.707 588.992 810.789 591.035 810.866 593.499L811.825 624.078C811.901 626.493 813.943 628.411 816.407 628.334Z" fill="#E2E8F0"/>
<path d="M915.271 562.901C891.713 563.64 873.214 583.336 873.953 606.894C874.691 630.452 894.388 648.951 917.946 648.213C941.504 647.474 960.003 627.777 959.264 604.219C958.525 580.661 938.829 562.162 915.271 562.901Z" fill="white"/>
<path d="M755.982 972.049L769.499 971.625C771.459 979.072 774.608 986.039 778.7 992.335L769.145 1002.59C767.746 1004.08 767.82 1006.45 769.31 1007.85L787.882 1025.21C789.371 1026.61 791.738 1026.54 793.136 1025.05L802.42 1015.08C809.047 1019.01 816.364 1021.87 824.125 1023.51L824.561 1037.43C824.625 1039.48 826.321 1041.07 828.367 1041.01L853.757 1040.21C855.803 1040.15 857.396 1038.45 857.332 1036.4L856.904 1022.77C864.87 1020.71 872.311 1017.3 878.957 1012.84L888.925 1022.16C890.414 1023.56 892.781 1023.49 894.18 1022L911.467 1003.51C912.866 1002.02 912.791 999.654 911.302 998.255L901.292 988.893C905.1 982.269 907.843 974.996 909.369 967.319L923.327 966.882C925.373 966.818 926.966 965.121 926.902 963.076L926.106 937.686C926.041 935.64 924.345 934.047 922.3 934.111L908.301 934.55C906.254 926.905 902.981 919.821 898.726 913.45L908.165 903.317C909.563 901.828 909.489 899.461 908 898.063L889.428 880.698C887.939 879.299 885.572 879.373 884.173 880.862L874.733 890.955C868.191 887.185 861.038 884.439 853.401 882.871L852.964 868.953C852.9 866.907 851.204 865.314 849.158 865.378L823.768 866.174C821.723 866.239 820.13 867.935 820.194 869.98L820.626 883.778C812.901 885.827 805.657 889.106 799.207 893.404L789.114 883.964C787.625 882.565 785.258 882.639 783.859 884.128L766.495 902.7C765.096 904.19 765.17 906.556 766.659 907.955L776.711 917.356C772.902 923.94 770.119 931.214 768.553 938.892L754.955 939.318C752.91 939.382 751.317 941.078 751.381 943.124L752.177 968.514C752.24 970.52 753.936 972.113 755.982 972.049Z" fill="#E2E8F0"/>
<path d="M838.072 917.718C818.511 918.331 803.151 934.686 803.764 954.246C804.378 973.807 820.732 989.167 840.293 988.554C859.854 987.941 875.214 971.586 874.6 952.025C873.987 932.464 857.633 917.104 838.072 917.718Z" fill="white"/>
<path d="M570.374 904.26C576.904 958.099 531.327 1004.58 501.832 1039.23C517.217 999.015 413.191 997.656 389.333 944.487C379.762 923.156 372.12 885.482 372.12 885.482L407.645 871.157L368.282 872.167C356.095 854.5 351.754 815.772 346.995 777.119C342.768 742.788 349.707 702.824 343.425 686.7C363.118 701.445 457.619 738.416 457.619 738.416L461.818 795.354L476.549 756.851C494.456 770.888 513.527 793.254 525.042 825.361C532.207 845.341 530.326 870.975 535.582 880.583L546.057 853.203C550.764 857.883 567.528 880.79 570.374 904.26Z" fill="#EDF2F7"/>
<path d="M529.603 978.538C566.35 1014.52 547.885 1098.06 541.883 1147.69C512.453 1129.54 445.082 1173.38 393.475 1151.53C372.772 1142.76 344.355 1120 344.355 1120L367.363 1081.14L333.311 1112.85C312.415 1108.94 286.295 1082.78 259.852 1057C236.364 1034.11 219.458 998.139 204.646 990.763C230.463 986.546 334.899 940.512 334.899 940.512L371.38 980.688L362.171 939.712C386.009 936.359 415.668 938.449 444.286 953.917C462.096 963.542 475.201 984.594 485.358 987.8L478.809 958.661C485.645 958.537 513.585 962.854 529.603 978.538Z" fill="#E2E8F0"/>
<path d="M641.991 1062.66C633.88 1099.55 574.658 1120.56 541.405 1136.14C541.259 1110.74 487.731 1085.84 481.257 1045.19C478.66 1028.88 481.779 1002.32 481.779 1002.32L514.937 1001.53L481.936 992.659C476.241 978.12 482.371 951.669 488.135 925.166C493.255 901.626 509.08 877.097 507.91 865C520.584 879.441 589.903 926.579 589.903 926.579L579.074 964.939L601.015 943.255C612.381 956.799 622.621 976.087 624.124 999.933C625.059 1014.77 617.046 1031.13 619.002 1038.7L634.604 1023.28C637.342 1027.49 645.526 1046.58 641.991 1062.66Z" fill="#CBD5E0"/>
<path d="M678.47 665.526H659.751C657.362 655.139 653.307 645.362 647.919 636.475L661.584 622.699C663.584 620.699 663.584 617.422 661.584 615.422L636.643 590.593C634.643 588.593 631.366 588.593 629.367 590.593L616.091 603.98C607.092 598.258 597.094 593.981 586.429 591.371V572.096C586.429 569.263 584.151 566.985 581.318 566.985H546.157C543.324 566.985 541.047 569.263 541.047 572.096V590.982C529.937 593.481 519.494 597.87 510.107 603.758L496.72 590.426C494.72 588.427 491.443 588.427 489.443 590.426L464.725 615.256C462.725 617.256 462.725 620.533 464.725 622.533L478.167 635.919C472.612 644.918 468.502 654.861 466.058 665.415H446.727C443.895 665.415 441.617 667.692 441.617 670.525V705.687C441.617 708.519 443.895 710.797 446.727 710.797H466.113C468.613 721.462 472.835 731.405 478.445 740.404L464.947 754.013C462.947 756.012 462.947 759.29 464.947 761.289L489.888 786.119C491.887 788.119 495.165 788.119 497.164 786.119L510.662 772.565C519.55 778.065 529.326 782.175 539.824 784.675V803.95C539.824 806.782 542.102 809.06 544.935 809.06H580.096C582.929 809.06 585.207 806.782 585.207 803.95V784.841C595.983 782.342 606.148 778.12 615.258 772.454L628.811 785.952C630.811 787.952 634.088 787.952 636.088 785.952L660.917 761.012C662.917 759.012 662.917 755.735 660.917 753.735L647.419 740.292C652.974 731.349 657.14 721.406 659.64 710.852H678.47C681.303 710.852 683.581 708.575 683.581 705.742V670.581C683.581 667.803 681.303 665.526 678.47 665.526Z" fill="#E2E8F0"/>
<path d="M562.54 737.13C589.629 737.13 611.588 715.17 611.588 688.082C611.588 660.993 589.629 639.034 562.54 639.034C535.452 639.034 513.492 660.993 513.492 688.082C513.492 715.17 535.452 737.13 562.54 737.13Z" fill="white"/>
<path d="M784.5 1023.5L165.5 1293L1337 1293L784.5 1023.5Z" fill="#EDF2F7"/>
<ellipse rx="19.1104" ry="21.4992" transform="matrix(-1 -8.74228e-08 -8.74228e-08 1 765.89 1100.16)" fill="#718096"/>
<path d="M744.816 880L744.816 1073.38C744.816 1078.91 749.294 1083.38 754.816 1083.38L773.084 1083.38C778.607 1083.38 783.084 1078.91 783.084 1073.38L783.084 880L744.816 880Z" fill="black"/>
<path d="M656.008 1126.43C656.008 1111.55 666.858 1097.25 686.264 1086.56C705.671 1075.87 732.113 1069.62 760.001 1069.13C787.889 1068.65 815.038 1073.97 835.71 1083.96C856.381 1093.96 868.954 1107.85 870.772 1122.7L833.886 1123.98C832.694 1114.24 824.444 1105.13 810.881 1098.57C797.318 1092.01 779.504 1088.52 761.206 1088.84C742.907 1089.16 725.557 1093.26 712.824 1100.27C700.091 1107.29 692.972 1116.67 692.972 1126.43L656.008 1126.43Z" fill="black"/>
<circle r="19.1104" transform="matrix(-1 -8.74228e-08 -8.74228e-08 1 851.89 1126.43)" fill="#718096"/>
<circle r="19.1104" transform="matrix(-1 -8.74228e-08 -8.74228e-08 1 675.112 1131.21)" fill="#718096"/>
<path d="M651.373 796.983H879.482L893.985 885.248C896.986 903.513 882.892 920.112 864.382 920.112H662.514C643.471 920.112 629.247 902.599 633.152 883.96L651.373 796.983Z" fill="black"/>
<path d="M647.259 824.563C654.159 827.798 675.54 827.836 685.368 827.451L697.431 849.769L690.626 851.271C687.034 852.064 676.555 858.66 672.477 855.277C667.381 851.049 653.769 854.054 645.262 855.932L614.069 862.817C611.553 860.399 605.502 853.646 601.431 845.98C597.36 838.313 602.986 830.569 606.307 827.655C617.083 825.276 640.359 821.328 647.259 824.563Z" fill="black"/>
<ellipse cx="683.864" cy="919.631" rx="22.0702" ry="13.9391" transform="rotate(104.007 683.864 919.631)" fill="#4A5568"/>
<path d="M669.754 1109.62C665.167 1099.88 669.346 1088.27 679.086 1083.68C689.641 1078.71 702.168 1084.06 705.875 1095.12L712.925 1116.16C715.657 1124.31 712.311 1133.26 704.903 1137.62C695.672 1143.06 683.767 1139.38 679.204 1129.69L669.754 1109.62Z" fill="#A0AEC0"/>
<path d="M715.06 899.172C726.154 896.304 737.474 902.973 740.342 914.067C743.417 925.961 735.541 937.908 723.398 939.77L696.859 943.841C684.607 945.72 673.761 935.782 674.564 923.413C675.107 915.054 680.954 907.989 689.064 905.892L715.06 899.172Z" fill="#A0AEC0"/>
<path d="M587.523 871.889C581.812 851.198 599.044 831.379 620.327 834.159L647.894 837.76C660.644 839.425 670.915 849.031 673.429 861.641L715.934 1074.82C718.882 1089.6 710.4 1104.28 696.119 1109.1L686.757 1112.27C670.429 1117.78 652.819 1108.44 648.233 1091.83L587.523 871.889Z" fill="#2D3748"/>
<ellipse cx="630.568" cy="864.82" rx="29.9501" ry="21.1889" transform="rotate(-6.15181 630.568 864.82)" fill="#4A5568"/>
<path d="M895.594 829.151C912.295 823.291 930.103 833.103 934.027 850.326L939.67 875.089C943.58 892.254 932.013 909.389 914.657 912.141L729.555 941.482L718.135 891.417L895.594 829.151Z" fill="#2D3748"/>
<ellipse rx="32.372" ry="18.9159" transform="matrix(-0.0995368 -0.995034 0.995 -0.0998701 910.693 867.577)" fill="#4A5568"/>
<path d="M675.765 1190.15C685.932 1183.69 677.32 1132.15 672.999 1123L716.453 1112.5C716.808 1127.38 723.998 1142 726.999 1150C730 1158 729.129 1168.69 723.495 1171.97C716.453 1176.08 716.453 1190.15 716.453 1198.95C716.453 1205.99 716.453 1221.24 712.541 1230.04C707.063 1237.08 702.099 1238.29 690.631 1240.01C682.805 1241.19 670.809 1235.13 667.94 1231.22C660.192 1220.66 668.389 1194.85 675.765 1190.15Z" fill="black"/>
<rect x="676.996" y="538.999" width="170" height="247" rx="30" fill="#CBD5E0"/>
<path d="M666.559 552.489C671.245 544.705 681.003 541.641 689.298 545.349C699.172 549.763 702.941 561.835 697.333 571.083L624.994 690.365C620.954 697.026 613.042 700.275 605.487 698.374C593.928 695.466 588.464 682.218 594.611 672.007L666.559 552.489Z" fill="#A0AEC0"/>
<path d="M827.153 570.624C822.286 562.389 825.016 551.768 833.251 546.9C841.692 541.911 852.588 544.918 857.276 553.53L922.686 673.683C925.724 679.264 924.89 686.159 920.608 690.855C913.854 698.262 901.86 697.025 896.76 688.395L827.153 570.624Z" fill="#A0AEC0"/>
<path d="M801.996 528.999H722.996C722.996 528.999 670.495 532.89 646.496 553C629.932 566.88 624.875 582.198 614.996 598.499C601.516 620.742 587.996 660.229 587.996 660.229L656.067 668.474L671.795 625.482L679.054 714.999H849.64L853.876 630.367L876.862 660.229L930.496 651.999C930.496 651.999 907.289 570.066 864.996 546C842.848 533.397 801.996 528.999 801.996 528.999Z" fill="#2D3748"/>
<path d="M530.5 705.798H1012L1080.58 828.346H451L530.5 705.798Z" fill="#CBD5E0"/>
<rect x="451" y="828.347" width="629.581" height="13.9391" fill="#A0AEC0"/>
<ellipse opacity="0.3" cx="583.422" cy="772.009" rx="25.555" ry="10.4543" fill="#4A5568"/>
<path d="M598.065 695.103C590.709 686.901 591.395 674.289 599.597 666.933C608.178 659.236 621.477 660.393 628.6 669.456L671.751 724.353C676.826 730.809 676.787 739.911 671.657 746.324C664.833 754.855 651.982 755.218 644.687 747.085L598.065 695.103Z" fill="#A0AEC0"/>
<path d="M620.825 710.302C614.846 703.636 615.404 693.386 622.069 687.408C628.983 681.206 639.684 682.07 645.514 689.3L693.858 749.25C697.91 754.274 698.061 761.401 694.225 766.592C688.883 773.823 678.248 774.327 672.246 767.634L620.825 710.302Z" fill="#CBD5E0"/>
<path d="M888.729 671.424C894.01 666.873 900.939 664.709 907.871 665.446C922.044 666.954 928.037 684.302 917.816 694.236L873.054 737.74C866.138 744.461 855.414 745.296 847.542 739.726C836.92 732.211 836.179 716.719 846.035 708.224L888.729 671.424Z" fill="#A0AEC0"/>
<path d="M538.938 841L538.937 1156.95L524.998 1156.95L524.998 841L538.938 841Z" fill="#718096"/>
<path d="M1013.94 841L1013.94 1156.95L999.998 1156.95L999.998 841L1013.94 841Z" fill="#718096"/>
<path d="M1066.95 842.283L1066.95 1248.84L1053.01 1248.84L1046.5 842.283L1066.95 842.283Z" fill="#4A5568"/>
<path d="M492.5 842.284L484.687 1248.84L470.748 1248.84L470.748 842.284L492.5 842.284Z" fill="#4A5568"/>
<path d="M877.643 680.171C883.708 673.61 893.944 673.208 900.505 679.273C907.33 685.582 907.448 696.331 900.764 702.789L850.904 750.959C846.214 755.49 839.043 756.25 833.507 752.802C825.931 748.084 824.524 737.634 830.582 731.08L877.643 680.171Z" fill="#CBD5E0"/>
<path d="M628.723 624.489H888.919L880.787 778.98H645.566L628.723 624.489Z" fill="#EDF2F7"/>
<rect x="651.953" y="778.979" width="224.187" height="6.96953" fill="#718096"/>
<path d="M733.262 686.23H719.25L727.54 696.255L736.648 690.544L733.262 686.23Z" fill="#D62F2F"/>
<path d="M738.518 692.76L729.41 698.705L734.314 704.533L741.554 696.49L738.518 692.76Z" fill="#D62F2F"/>
<path d="M745.642 701.617L743.54 698.936L736.184 706.979L742.839 714.905L747.86 711.642L745.642 701.617Z" fill="#D62F2F"/>
<path d="M778.218 676.555L768.41 690.66L767.476 683.433L759.419 676.555L750.311 679.236L747.976 682.034L751.246 686.114L752.413 683.899L754.165 684.015L755.332 685.647L752.296 690.66L740.62 676.555H711.195L716.683 683.199H735.015L748.093 699.519L751.129 713.158L744.824 717.237L750.195 723.649L752.997 716.305H757.434C757.434 716.305 758.719 720.618 759.186 722.367C759.302 722.833 759.419 723.066 759.419 723.066L761.287 716.305H765.724L768.644 723.649L774.015 717.237L767.709 713.041L770.745 699.402L783.823 683.083H802.038L807.526 676.438H778.218V676.555ZM758.368 680.985L756.033 679.586L758.719 679.12L758.368 680.985Z" fill="#D62F2F"/>
<path d="M761.287 727.847H757.434L755.215 718.521L753.113 727.381L759.419 734.841L765.607 727.381L763.505 718.521L761.287 727.847Z" fill="#D62F2F"/>
<path d="M782.07 690.544L791.178 696.255L799.468 686.23H785.456L782.07 690.544Z" fill="#D62F2F"/>
<path d="M777.168 696.49L784.407 704.533L789.311 698.705L780.204 692.76L777.168 696.49Z" fill="#D62F2F"/>
<path d="M773.082 701.617L770.863 711.642L775.884 714.905L782.54 706.979L775.184 698.936L773.082 701.617Z" fill="#D62F2F"/>
<path d="M758.486 674.808L759.421 669.446L755.684 672.244L751.831 668.63L750.546 673.642L746.109 673.409L749.379 677.489L758.486 674.808Z" fill="#D62F2F"/>
<path d="M559.023 717.92C569.159 714.706 593.571 710.207 610.133 717.92C601.238 724.348 578.562 733.348 559.023 717.92Z" fill="#2D3748"/>
<path d="M558.137 717.319C558.137 717.319 569.702 723.226 585.061 723.226C600.42 723.226 612.272 717.319 612.272 717.319L604.708 766.311C603.955 771.186 599.759 774.785 594.825 774.785H574.688C569.686 774.785 565.453 771.089 564.779 766.133L558.137 717.319Z" fill="#D62F2F"/>
<path d="M559.605 717.404C570.186 713.084 594.33 709.596 610.715 717.404" stroke="#D62F2F" stroke-width="3" stroke-linecap="round" stroke-linejoin="round"/>
<path d="M561.183 732.047C550.146 730.899 535.303 733.856 564.228 754.871" stroke="#D62F2F" stroke-width="6" stroke-linecap="round"/>
<ellipse cx="762.799" cy="479.352" rx="52.1702" ry="69.7777" fill="#E2E8F0"/>
<path d="M819.282 455.344C819.282 459.362 814.042 469.72 813.668 475.577C813.668 468.833 805.472 455.876 801.879 449.486C797.387 441.498 802.272 436.746 797.949 430.316C790.305 418.947 771.562 419.489 763.141 420.199C753.597 418.6 736.592 419.66 727.211 430.316C721.256 437.08 726.65 447.887 719.351 451.614C713.513 454.596 711.117 471.316 710.369 481.433V468.122C710.369 462.975 707 452.041 707 449.486C707 446.291 708.863 413.779 715.983 405.122C720.945 399.089 736.755 391.811 736.755 391.811C736.755 391.811 761.09 385.418 775.492 387.552C791.359 389.904 800.958 396.993 810.299 409.382C818.166 419.815 819.282 447.349 819.282 455.344Z" fill="black"/>
<path d="M763.137 387.119C774.815 388.017 768.003 410.338 763.137 420.256C761.266 415.765 757.074 405.21 755.277 398.922C753.481 392.635 744.798 391.621 741.242 391.06C743.301 390.686 751.46 386.221 763.137 387.119Z" fill="#4A5568"/>
<path d="M713.73 461.224C715.415 469.832 718.222 493.786 718.222 493.786C718.222 493.786 723.836 509.88 726.643 514.558C729.45 519.236 734.355 519.349 739.555 518.488C744.869 517.608 745.362 511.201 750.507 510.119C750.503 510.12 750.502 510.12 750.502 510.12C750.502 510.12 759.819 507.26 762.011 507.26C764.862 507.26 773.801 510.067 773.801 510.067C778.651 511.283 777.963 515.926 781.661 518.488C799.031 530.523 805.111 493.209 809.17 471.891C809.75 468.845 810.293 464.031 810.293 464.031L813.661 471.891C813.661 471.891 816.584 492.75 813.661 505.576C810.371 520.012 804.241 526.79 796.258 539.26C792.946 544.434 792.142 548.424 787.275 552.173C780.83 557.137 767.064 557.225 767.064 557.225C767.064 557.225 750.159 559.774 741.801 554.418C736.435 550.98 733.941 544.5 731.134 542.067C731.134 542.067 723.974 534.676 720.467 529.155C715.512 521.353 713.695 516.234 711.485 507.26C708.389 494.693 710.362 474.137 710.362 474.137L713.73 461.224Z" fill="#718096"/>
<path d="M1087.14 1241.53C1084.67 1244.54 1086.43 1249.08 1090.29 1249.59C1117.15 1253.12 1135.86 1253.19 1164.89 1249.45C1168.57 1248.97 1170.42 1244.77 1168.32 1241.72L1161.14 1231.28L1095.56 1231.28L1087.14 1241.53Z" fill="#2D3748"/>
<path d="M1179.41 1154.69C1139.76 1163.95 1117.56 1163.5 1077.9 1154.69L1090.96 1231.27C1119.41 1237.39 1135.36 1237.87 1163.82 1231.27L1179.41 1154.69Z" fill="#D62F2F"/>
<path d="M1179.41 1154.69C1163.7 1160.09 1121.48 1167.65 1078.27 1154.69C1094.1 1151.16 1136.49 1146.21 1179.41 1154.69Z" fill="#1A202C"/>
<path d="M1138.19 1157.87C1135.32 1091.99 1146.06 959.59 1211.92 957.116" stroke="#718096" stroke-width="3"/>
<path d="M1110.94 1157.58C1111.12 1111.47 1100.02 1019.18 1054.18 1018.94" stroke="#718096" stroke-width="3"/>
<path d="M1123.74 1158.72C1109.84 1069.12 1090.37 880.121 1123.74 840.926C1157.12 801.731 1170.52 793.698 1173.05 794.581" stroke="#718096" stroke-width="3"/>
<path d="M1176.26 956.041C1151.11 970.862 1154.3 1003.27 1153.25 1022.62C1162.94 1005.65 1208.32 1030.82 1240.98 1021.25C1254.08 1017.42 1273.06 1007.94 1273.06 1007.94L1263.02 993.145L1280.28 1004.92C1293.05 1002.98 1310.98 992.217 1329.07 981.597C1345.14 972.164 1358.52 957.73 1368 954.551C1353.06 953.396 1295.36 937.362 1295.36 937.362L1269.97 953.824L1279.24 937.575C1265.41 936.721 1247.61 938.115 1229.19 944.734C1217.72 948.854 1207.99 957.364 1201.66 958.818L1208.25 947.263C1204.21 947.346 1187.22 949.58 1176.26 956.041Z" fill="#4A5568"/>
<path d="M1154.91 1047.41C1132.76 1051.65 1122.19 1074.22 1113.95 1087.02C1126.88 1077.79 1146.55 1105.12 1171.53 1106.13C1181.55 1106.53 1197.59 1104.48 1197.59 1104.48L1196.83 1092.22L1203.46 1104.09C1212.52 1105.7 1228.39 1102.54 1244.3 1099.51C1258.43 1096.83 1272.76 1090.15 1280.17 1090.18C1270.91 1085.99 1239.64 1062.01 1239.64 1062.01L1216.71 1067.31L1229.08 1058.47C1220.42 1054.74 1208.3 1051.62 1193.74 1051.87C1184.67 1052.03 1175.02 1055.54 1170.34 1055.08L1179.14 1048.8C1176.48 1047.93 1164.56 1045.56 1154.91 1047.41Z" fill="#4A5568"/>
<path d="M1051.96 932.339C1049 965.288 1085.94 986.264 1105.79 1001.38C1111.88 978.935 1155.61 959.084 1169.78 923.404C1175.46 909.09 1179.51 885.479 1179.51 885.479L1156.24 883.437L1181.68 876.929C1189.13 864.304 1191.03 840.668 1193.2 817C1195.13 795.979 1189.72 773.648 1193.4 763C1181.03 775.255 1120.88 814.126 1120.88 814.126L1119.5 848.482L1109.09 828.421C1097.86 839.936 1086.07 856.575 1079.38 877.599C1075.22 890.683 1077.04 905.47 1073.87 912.088L1066.47 897.822C1063.54 901.433 1053.25 917.976 1051.96 932.339Z" fill="#A0AEC0"/>
<path d="M1076.69 991.882C1089.24 1005.22 1081.22 1024.96 1079.39 1036.99C1075.98 1024.95 1047.22 1034.98 1029.7 1023.59C1022.68 1019.02 1012.44 1009.05 1012.44 1009.05L1022.31 999.943L1010.93 1004.24C1003.86 1000.89 994.938 991.261 985.905 981.693C977.882 973.195 972.03 962.088 966.999 958.537C975.701 960.355 1010.79 960.291 1010.79 960.291L1023.27 974.673L1019.99 963.147C1028.03 964.965 1038.06 968.829 1047.78 976.002C1053.83 980.465 1058.34 987.326 1061.79 989.287L1059.46 981.092C1061.77 981.827 1071.22 986.069 1076.69 991.882Z" fill="#A0AEC0"/>
<rect x="335" y="278.524" width="263.704" height="96.785" rx="48.3925" fill="#EDF2F7"/>
<circle cx="419.861" cy="278.29" r="46.9898" fill="#EDF2F7"/>
<circle cx="507.995" cy="269.64" r="55.6397" fill="#EDF2F7"/>
<rect x="515.93" y="304.267" width="27.0093" height="35.263" transform="rotate(-180 515.93 304.267)" fill="#D62F2F"/>
<path d="M502.421 335.718L468.374 288.899L536.467 288.899L502.421 335.718Z" fill="#D62F2F"/>
<rect x="422.672" y="300.453" width="27.0093" height="35.263" fill="#D62F2F"/>
<path d="M436.181 269.002L470.227 315.821H402.134L436.181 269.002Z" fill="#D62F2F"/>
<rect x="799" y="56" width="474.593" height="208.924" rx="23" fill="#EDF2F7"/>
<path d="M839.27 305.333L887.218 263.138H863.244H839.27V305.333Z" fill="#E2E8F0"/>
<rect x="1015.22" y="80.1421" width="109.559" height="13.0427" fill="#D62F2F"/>
<rect x="1150.86" y="80.1421" width="72.1698" height="13.0427" fill="#D62F2F"/>
<rect x="934.352" y="116.662" width="109.559" height="13.0427" fill="#D62F2F"/>
<rect x="888.266" y="153.181" width="254.768" height="13.0427" fill="#D62F2F"/>
<rect x="908.262" y="189.701" width="109.559" height="13.0427" fill="#D62F2F"/>
<rect x="1050.86" y="226.221" width="109.559" height="13.0427" fill="#D62F2F"/>
<rect x="824.793" y="110.574" width="26.0855" height="26.0855" fill="#D62F2F"/>
<rect x="824.793" y="183.614" width="26.0855" height="26.0855" fill="#D62F2F"/>
<rect x="824.793" y="74.0552" width="26.0855" height="26.0855" fill="#D62F2F"/>
<rect x="824.793" y="147.094" width="26.0855" height="26.0855" fill="#D62F2F"/>
<rect x="824.793" y="220.134" width="26.0855" height="26.0855" fill="#D62F2F"/>
<path d="M1006.52 78.4023L989.133 87.4195L1006.52 95.7927" stroke="#D62F2F" stroke-width="4"/>
<path d="M908.269 114.921L890.879 123.939L908.269 132.312" stroke="#D62F2F" stroke-width="4"/>
<path d="M878.711 151.442L861.32 160.46L878.711 168.833" stroke="#D62F2F" stroke-width="4"/>
<path d="M878.711 187.962L861.32 196.979L878.711 205.352" stroke="#D62F2F" stroke-width="4"/>
<path d="M1041.31 224.481L1023.92 233.498L1041.31 241.871" stroke="#D62F2F" stroke-width="4"/>
<path d="M1229.12 78.4023L1246.51 87.4195L1229.12 95.7927" stroke="#D62F2F" stroke-width="4"/>
<path d="M1050.87 114.921L1068.26 123.939L1050.87 132.312" stroke="#D62F2F" stroke-width="4"/>
<path d="M1184.78 224.481L1202.17 233.498L1184.78 241.871" stroke="#D62F2F" stroke-width="4"/>
<path d="M1142.6 78.4023L1130.86 94.4884" stroke="#D62F2F" stroke-width="4"/>
<path d="M899.137 188.831L887.398 204.917" stroke="#D62F2F" stroke-width="4"/>
<path d="M926.098 115.792L914.359 131.878" stroke="#D62F2F" stroke-width="4"/>
<path d="M1178.25 225.351L1166.52 241.437" stroke="#D62F2F" stroke-width="4"/>
<rect width="111.044" height="133" rx="10" transform="matrix(4.27003e-08 1 1 -4.47464e-08 1086 417)" fill="#EDF2F7"/>
<path d="M1102 549L1129 527H1115.5H1102V549Z" fill="#E2E8F0"/>
<rect x="1105" y="449" width="96.625" height="8.11312" fill="#D62F2F"/>
<rect x="1105" y="468.719" width="77.8916" height="7.88775" fill="#D62F2F"/>
<rect x="1105" y="488.439" width="96.625" height="7.88775" fill="#D62F2F"/>
</svg>
